<?xml version="1.0" encoding="UTF-8" standalone="no"?>
<!DOCTYPE svg PUBLIC "-//W3C//DTD SVG 1.1//EN"
 "http://www.w3.org/Graphics/SVG/1.1/DTD/svg11.dtd">
<!-- Generated by graphviz version 8.0.5 (20230506.1012)
 -->
<!-- Title: snakemake_dag Pages: 1 -->
<svg width="760pt" height="630pt"
 viewBox="0.00 0.00 759.87 630.25" xmlns="http://www.w3.org/2000/svg" xmlns:xlink="http://www.w3.org/1999/xlink">
<g id="graph0" class="graph" transform="scale(1 1) rotate(0) translate(4 626.25)">
<title>snakemake_dag</title>
<polygon fill="white" stroke="none" points="-4,4 -4,-626.25 755.87,-626.25 755.87,4 -4,4"/>
<!-- 0 -->
<g id="node1" class="node">
<title>0</title>
<path fill="none" stroke="#bed856" stroke-width="2" stroke-dasharray="5,2" d="M396.37,-36C396.37,-36 366.37,-36 366.37,-36 360.37,-36 354.37,-30 354.37,-24 354.37,-24 354.37,-12 354.37,-12 354.37,-6 360.37,0 366.37,0 366.37,0 396.37,0 396.37,0 402.37,0 408.37,-6 408.37,-12 408.37,-12 408.37,-24 408.37,-24 408.37,-30 402.37,-36 396.37,-36"/>
<text text-anchor="middle" x="381.37" y="-14.88" font-family="sans" font-size="10.00">all</text>
</g>
<!-- 1 -->
<g id="node2" class="node">
<title>1</title>
<path fill="none" stroke="#56a2d8" stroke-width="2" stroke-dasharray="5,2" d="M90.75,-468C90.75,-468 32,-468 32,-468 26,-468 20,-462 20,-456 20,-456 20,-444 20,-444 20,-438 26,-432 32,-432 32,-432 90.75,-432 90.75,-432 96.75,-432 102.75,-438 102.75,-444 102.75,-444 102.75,-456 102.75,-456 102.75,-462 96.75,-468 90.75,-468"/>
<text text-anchor="middle" x="61.37" y="-446.88" font-family="sans" font-size="10.00">fastp_multiqc</text>
</g>
<!-- 1&#45;&gt;0 -->
<g id="edge1" class="edge">
<title>1&#45;&gt;0</title>
<path fill="none" stroke="grey" stroke-width="2" d="M62.62,-431.08C64.37,-404.15 67.37,-351.66 67.37,-307 67.37,-307 67.37,-307 67.37,-161 67.37,-42.43 255.56,-22.34 340.56,-19.31"/>
<polygon fill="grey" stroke="grey" stroke-width="2" points="340.61,-22.73 350.51,-18.96 340.41,-15.73 340.61,-22.73"/>
</g>
<!-- 2 -->
<g id="node3" class="node">
<title>2</title>
<path fill="none" stroke="#d8bc56" stroke-width="2" stroke-dasharray="5,2" d="M246.75,-550.25C246.75,-550.25 176,-550.25 176,-550.25 170,-550.25 164,-544.25 164,-538.25 164,-538.25 164,-516 164,-516 164,-510 170,-504 176,-504 176,-504 246.75,-504 246.75,-504 252.75,-504 258.75,-510 258.75,-516 258.75,-516 258.75,-538.25 258.75,-538.25 258.75,-544.25 252.75,-550.25 246.75,-550.25"/>
<text text-anchor="middle" x="211.37" y="-536.75" font-family="sans" font-size="10.00">fastp_pe</text>
<text text-anchor="middle" x="211.37" y="-524" font-family="sans" font-size="10.00">s: SRR10903401</text>
<text text-anchor="middle" x="211.37" y="-511.25" font-family="sans" font-size="10.00">u: </text>
</g>
<!-- 2&#45;&gt;1 -->
<g id="edge13" class="edge">
<title>2&#45;&gt;1</title>
<path fill="none" stroke="grey" stroke-width="2" d="M165.55,-503.18C147.46,-494.12 126.68,-483.71 108.47,-474.59"/>
<polygon fill="grey" stroke="grey" stroke-width="2" points="109.43,-471.15 98.92,-469.8 106.29,-477.41 109.43,-471.15"/>
</g>
<!-- 7 -->
<g id="node8" class="node">
<title>7</title>
<path fill="none" stroke="#5673d8" stroke-width="2" stroke-dasharray="5,2" d="M351.37,-468C351.37,-468 321.37,-468 321.37,-468 315.37,-468 309.37,-462 309.37,-456 309.37,-456 309.37,-444 309.37,-444 309.37,-438 315.37,-432 321.37,-432 321.37,-432 351.37,-432 351.37,-432 357.37,-432 363.37,-438 363.37,-444 363.37,-444 363.37,-456 363.37,-456 363.37,-462 357.37,-468 351.37,-468"/>
<text text-anchor="middle" x="336.37" y="-446.88" font-family="sans" font-size="10.00">align</text>
</g>
<!-- 2&#45;&gt;7 -->
<g id="edge20" class="edge">
<title>2&#45;&gt;7</title>
<path fill="none" stroke="grey" stroke-width="2" d="M249.56,-503.18C264.92,-493.94 282.62,-483.31 298,-474.06"/>
<polygon fill="grey" stroke="grey" stroke-width="2" points="299.96,-476.76 306.73,-468.61 296.36,-470.76 299.96,-476.76"/>
</g>
<!-- 3 -->
<g id="node4" class="node">
<title>3</title>
<path fill="none" stroke="#d8bc56" stroke-width="2" stroke-dasharray="5,2" d="M96.75,-550.25C96.75,-550.25 26,-550.25 26,-550.25 20,-550.25 14,-544.25 14,-538.25 14,-538.25 14,-516 14,-516 14,-510 20,-504 26,-504 26,-504 96.75,-504 96.75,-504 102.75,-504 108.75,-510 108.75,-516 108.75,-516 108.75,-538.25 108.75,-538.25 108.75,-544.25 102.75,-550.25 96.75,-550.25"/>
<text text-anchor="middle" x="61.37" y="-536.75" font-family="sans" font-size="10.00">fastp_pe</text>
<text text-anchor="middle" x="61.37" y="-524" font-family="sans" font-size="10.00">s: SRR10903402</text>
<text text-anchor="middle" x="61.37" y="-511.25" font-family="sans" font-size="10.00">u: </text>
</g>
<!-- 3&#45;&gt;1 -->
<g id="edge14" class="edge">
<title>3&#45;&gt;1</title>
<path fill="none" stroke="grey" stroke-width="2" d="M61.37,-503.18C61.37,-496.36 61.37,-488.78 61.37,-481.56"/>
<polygon fill="grey" stroke="grey" stroke-width="2" points="64.87,-481.8 61.37,-471.8 57.87,-481.8 64.87,-481.8"/>
</g>
<!-- 12 -->
<g id="node13" class="node">
<title>12</title>
<path fill="none" stroke="#5673d8" stroke-width="2" stroke-dasharray="5,2" d="M162.37,-468C162.37,-468 132.37,-468 132.37,-468 126.37,-468 120.37,-462 120.37,-456 120.37,-456 120.37,-444 120.37,-444 120.37,-438 126.37,-432 132.37,-432 132.37,-432 162.37,-432 162.37,-432 168.37,-432 174.37,-438 174.37,-444 174.37,-444 174.37,-456 174.37,-456 174.37,-462 168.37,-468 162.37,-468"/>
<text text-anchor="middle" x="147.37" y="-446.88" font-family="sans" font-size="10.00">align</text>
</g>
<!-- 3&#45;&gt;12 -->
<g id="edge27" class="edge">
<title>3&#45;&gt;12</title>
<path fill="none" stroke="grey" stroke-width="2" d="M87.64,-503.18C97.03,-494.98 107.67,-485.68 117.35,-477.23"/>
<polygon fill="grey" stroke="grey" stroke-width="2" points="119.76,-479.02 124.99,-469.8 115.16,-473.75 119.76,-479.02"/>
</g>
<!-- 4 -->
<g id="node5" class="node">
<title>4</title>
<path fill="none" stroke="#d88d56" stroke-width="2" stroke-dasharray="5,2" d="M174.37,-252C174.37,-252 116.37,-252 116.37,-252 110.37,-252 104.37,-246 104.37,-240 104.37,-240 104.37,-228 104.37,-228 104.37,-222 110.37,-216 116.37,-216 116.37,-216 174.37,-216 174.37,-216 180.37,-216 186.37,-222 186.37,-228 186.37,-228 186.37,-240 186.37,-240 186.37,-246 180.37,-252 174.37,-252"/>
<text text-anchor="middle" x="145.37" y="-230.88" font-family="sans" font-size="10.00">align_multiqc</text>
</g>
<!-- 4&#45;&gt;0 -->
<g id="edge2" class="edge">
<title>4&#45;&gt;0</title>
<path fill="none" stroke="grey" stroke-width="2" d="M145.39,-215.21C146.43,-182.21 153.48,-111.3 193.37,-72 232.83,-33.13 298.46,-22.29 340.81,-19.53"/>
<polygon fill="grey" stroke="grey" stroke-width="2" points="340.86,-22.88 350.68,-18.89 340.52,-15.89 340.86,-22.88"/>
</g>
<!-- 5 -->
<g id="node6" class="node">
<title>5</title>
<path fill="none" stroke="#56c1d8" stroke-width="2" stroke-dasharray="5,2" d="M286.5,-324C286.5,-324 220.25,-324 220.25,-324 214.25,-324 208.25,-318 208.25,-312 208.25,-312 208.25,-300 208.25,-300 208.25,-294 214.25,-288 220.25,-288 220.25,-288 286.5,-288 286.5,-288 292.5,-288 298.5,-294 298.5,-300 298.5,-300 298.5,-312 298.5,-312 298.5,-318 292.5,-324 286.5,-324"/>
<text text-anchor="middle" x="253.37" y="-302.88" font-family="sans" font-size="10.00">samtools_stats</text>
</g>
<!-- 5&#45;&gt;4 -->
<g id="edge15" class="edge">
<title>5&#45;&gt;4</title>
<path fill="none" stroke="grey" stroke-width="2" d="M225.84,-287.15C213.02,-278.84 197.55,-268.82 183.62,-259.79"/>
<polygon fill="grey" stroke="grey" stroke-width="2" points="185.15,-256.31 174.85,-253.81 181.34,-262.19 185.15,-256.31"/>
</g>
<!-- 6 -->
<g id="node7" class="node">
<title>6</title>
<path fill="none" stroke="#56d873" stroke-width="2" stroke-dasharray="5,2" d="M376.87,-396C376.87,-396 309.87,-396 309.87,-396 303.87,-396 297.87,-390 297.87,-384 297.87,-384 297.87,-372 297.87,-372 297.87,-366 303.87,-360 309.87,-360 309.87,-360 376.87,-360 376.87,-360 382.87,-360 388.87,-366 388.87,-372 388.87,-372 388.87,-384 388.87,-384 388.87,-390 382.87,-396 376.87,-396"/>
<text text-anchor="middle" x="343.37" y="-374.88" font-family="sans" font-size="10.00">MergeSamFiles</text>
</g>
<!-- 6&#45;&gt;5 -->
<g id="edge17" class="edge">
<title>6&#45;&gt;5</title>
<path fill="none" stroke="grey" stroke-width="2" d="M320.66,-359.34C310.3,-351.27 297.82,-341.57 286.44,-332.72"/>
<polygon fill="grey" stroke="grey" stroke-width="2" points="288.43,-329.28 278.39,-325.9 284.13,-334.8 288.43,-329.28"/>
</g>
<!-- 14 -->
<g id="node15" class="node">
<title>14</title>
<path fill="none" stroke="#56d8d8" stroke-width="2" stroke-dasharray="5,2" d="M383.87,-324C383.87,-324 328.87,-324 328.87,-324 322.87,-324 316.87,-318 316.87,-312 316.87,-312 316.87,-300 316.87,-300 316.87,-294 322.87,-288 328.87,-288 328.87,-288 383.87,-288 383.87,-288 389.87,-288 395.87,-294 395.87,-300 395.87,-300 395.87,-312 395.87,-312 395.87,-318 389.87,-324 383.87,-324"/>
<text text-anchor="middle" x="356.37" y="-302.88" font-family="sans" font-size="10.00">RemoveHost</text>
</g>
<!-- 6&#45;&gt;14 -->
<g id="edge31" class="edge">
<title>6&#45;&gt;14</title>
<path fill="none" stroke="grey" stroke-width="2" d="M346.65,-359.34C347.88,-352.75 349.3,-345.08 350.68,-337.67"/>
<polygon fill="grey" stroke="grey" stroke-width="2" points="354.66,-337.37 353.05,-326.9 347.78,-336.09 354.66,-337.37"/>
</g>
<!-- 7&#45;&gt;6 -->
<g id="edge18" class="edge">
<title>7&#45;&gt;6</title>
<path fill="none" stroke="grey" stroke-width="2" d="M338.14,-431.34C338.8,-424.75 339.56,-417.08 340.31,-409.67"/>
<polygon fill="grey" stroke="grey" stroke-width="2" points="344.07,-410.2 341.58,-399.9 337.1,-409.5 344.07,-410.2"/>
</g>
<!-- 8 -->
<g id="node9" class="node">
<title>8</title>
<path fill="none" stroke="#568ad8" stroke-width="2" stroke-dasharray="5,2" d="M436.75,-622.25C436.75,-622.25 384,-622.25 384,-622.25 378,-622.25 372,-616.25 372,-610.25 372,-610.25 372,-598.25 372,-598.25 372,-592.25 378,-586.25 384,-586.25 384,-586.25 436.75,-586.25 436.75,-586.25 442.75,-586.25 448.75,-592.25 448.75,-598.25 448.75,-598.25 448.75,-610.25 448.75,-610.25 448.75,-616.25 442.75,-622.25 436.75,-622.25"/>
<text text-anchor="middle" x="410.37" y="-601.12" font-family="sans" font-size="10.00">get_genome</text>
</g>
<!-- 8&#45;&gt;6 -->
<g id="edge19" class="edge">
<title>8&#45;&gt;6</title>
<path fill="none" stroke="grey" stroke-width="2" d="M413.9,-585.34C417.19,-565.2 420.6,-531.69 413.37,-504 403.99,-468.06 381.73,-431.51 364.81,-407.29"/>
<polygon fill="grey" stroke="grey" stroke-width="2" points="366.93,-404.85 358.25,-398.77 361.24,-408.93 366.93,-404.85"/>
</g>
<!-- 8&#45;&gt;7 -->
<g id="edge21" class="edge">
<title>8&#45;&gt;7</title>
<path fill="none" stroke="grey" stroke-width="2" d="M410.16,-585.32C409.21,-564.56 405.41,-529.91 391.37,-504 386.06,-494.2 378.3,-485.11 370.28,-477.34"/>
<polygon fill="grey" stroke="grey" stroke-width="2" points="372.64,-474.95 362.87,-470.84 367.95,-480.14 372.64,-474.95"/>
</g>
<!-- 9 -->
<g id="node10" class="node">
<title>9</title>
<path fill="none" stroke="#56d8c1" stroke-width="2" stroke-dasharray="5,2" d="M370,-545.12C370,-545.12 288.75,-545.12 288.75,-545.12 282.75,-545.12 276.75,-539.12 276.75,-533.12 276.75,-533.12 276.75,-521.12 276.75,-521.12 276.75,-515.12 282.75,-509.12 288.75,-509.12 288.75,-509.12 370,-509.12 370,-509.12 376,-509.12 382,-515.12 382,-521.12 382,-521.12 382,-533.12 382,-533.12 382,-539.12 376,-545.12 370,-545.12"/>
<text text-anchor="middle" x="329.37" y="-524" font-family="sans" font-size="10.00">bwa_mem2_index</text>
</g>
<!-- 8&#45;&gt;9 -->
<g id="edge23" class="edge">
<title>8&#45;&gt;9</title>
<path fill="none" stroke="grey" stroke-width="2" d="M391.18,-585.45C381.26,-576.25 368.97,-564.85 357.96,-554.64"/>
<polygon fill="grey" stroke="grey" stroke-width="2" points="360.42,-552.3 350.71,-548.06 355.66,-557.43 360.42,-552.3"/>
</g>
<!-- 11 -->
<g id="node12" class="node">
<title>11</title>
<path fill="none" stroke="#56d873" stroke-width="2" stroke-dasharray="5,2" d="M179.87,-396C179.87,-396 112.87,-396 112.87,-396 106.87,-396 100.87,-390 100.87,-384 100.87,-384 100.87,-372 100.87,-372 100.87,-366 106.87,-360 112.87,-360 112.87,-360 179.87,-360 179.87,-360 185.87,-360 191.87,-366 191.87,-372 191.87,-372 191.87,-384 191.87,-384 191.87,-390 185.87,-396 179.87,-396"/>
<text text-anchor="middle" x="146.37" y="-374.88" font-family="sans" font-size="10.00">MergeSamFiles</text>
</g>
<!-- 8&#45;&gt;11 -->
<g id="edge26" class="edge">
<title>8&#45;&gt;11</title>
<path fill="none" stroke="grey" stroke-width="2" d="M371.06,-601.01C274.03,-595.08 29.32,-577.53 5.37,-550.25 -5.73,-537.6 3.74,-442.25 11.37,-432 29.37,-407.83 60.04,-394.68 87.6,-387.52"/>
<polygon fill="grey" stroke="grey" stroke-width="2" points="89.05,-390.31 97.99,-384.64 87.46,-383.49 89.05,-390.31"/>
</g>
<!-- 8&#45;&gt;12 -->
<g id="edge28" class="edge">
<title>8&#45;&gt;12</title>
<path fill="none" stroke="grey" stroke-width="2" d="M371.14,-600.7C306.85,-595.65 183.39,-581.99 155.37,-550.25 139.16,-531.88 138.45,-503.42 141.04,-481.68"/>
<polygon fill="grey" stroke="grey" stroke-width="2" points="144.96,-481.26 143.04,-470.84 138.04,-480.19 144.96,-481.26"/>
</g>
<!-- 8&#45;&gt;14 -->
<g id="edge32" class="edge">
<title>8&#45;&gt;14</title>
<path fill="none" stroke="grey" stroke-width="2" d="M418.89,-585.56C423.27,-575.47 428.15,-562.44 430.37,-550.25 434.06,-530.03 432.68,-524.43 430.37,-504 422.99,-438.76 425.45,-419.35 397.37,-360 393.2,-351.18 387.36,-342.45 381.39,-334.7"/>
<polygon fill="grey" stroke="grey" stroke-width="2" points="383.36,-332.35 374.32,-326.82 377.94,-336.78 383.36,-332.35"/>
</g>
<!-- 16 -->
<g id="node17" class="node">
<title>16</title>
<path fill="none" stroke="#56d8d8" stroke-width="2" stroke-dasharray="5,2" d="M551.87,-324C551.87,-324 496.87,-324 496.87,-324 490.87,-324 484.87,-318 484.87,-312 484.87,-312 484.87,-300 484.87,-300 484.87,-294 490.87,-288 496.87,-288 496.87,-288 551.87,-288 551.87,-288 557.87,-288 563.87,-294 563.87,-300 563.87,-300 563.87,-312 563.87,-312 563.87,-318 557.87,-324 551.87,-324"/>
<text text-anchor="middle" x="524.37" y="-302.88" font-family="sans" font-size="10.00">RemoveHost</text>
</g>
<!-- 8&#45;&gt;16 -->
<g id="edge35" class="edge">
<title>8&#45;&gt;16</title>
<path fill="none" stroke="grey" stroke-width="2" d="M424.4,-585.4C431.7,-575.47 440.33,-562.65 446.37,-550.25 481.92,-477.32 506.49,-384.4 517.63,-337.31"/>
<polygon fill="grey" stroke="grey" stroke-width="2" points="521.68,-337.29 520.53,-326.76 514.86,-335.72 521.68,-337.29"/>
</g>
<!-- 9&#45;&gt;7 -->
<g id="edge22" class="edge">
<title>9&#45;&gt;7</title>
<path fill="none" stroke="grey" stroke-width="2" d="M331.03,-508.32C331.78,-500.33 332.68,-490.68 333.52,-481.59"/>
<polygon fill="grey" stroke="grey" stroke-width="2" points="337.26,-482.22 334.7,-471.94 330.29,-481.57 337.26,-482.22"/>
</g>
<!-- 9&#45;&gt;12 -->
<g id="edge29" class="edge">
<title>9&#45;&gt;12</title>
<path fill="none" stroke="grey" stroke-width="2" d="M285.78,-508.13C255.78,-495.75 216.25,-479.43 187.12,-467.41"/>
<polygon fill="grey" stroke="grey" stroke-width="2" points="187.9,-464.12 177.33,-463.54 185.23,-470.59 187.9,-464.12"/>
</g>
<!-- 10 -->
<g id="node11" class="node">
<title>10</title>
<path fill="none" stroke="#56c1d8" stroke-width="2" stroke-dasharray="5,2" d="M178.5,-324C178.5,-324 112.25,-324 112.25,-324 106.25,-324 100.25,-318 100.25,-312 100.25,-312 100.25,-300 100.25,-300 100.25,-294 106.25,-288 112.25,-288 112.25,-288 178.5,-288 178.5,-288 184.5,-288 190.5,-294 190.5,-300 190.5,-300 190.5,-312 190.5,-312 190.5,-318 184.5,-324 178.5,-324"/>
<text text-anchor="middle" x="145.37" y="-302.88" font-family="sans" font-size="10.00">samtools_stats</text>
</g>
<!-- 10&#45;&gt;4 -->
<g id="edge16" class="edge">
<title>10&#45;&gt;4</title>
<path fill="none" stroke="grey" stroke-width="2" d="M145.37,-287.34C145.37,-280.75 145.37,-273.08 145.37,-265.67"/>
<polygon fill="grey" stroke="grey" stroke-width="2" points="148.87,-265.9 145.37,-255.9 141.87,-265.9 148.87,-265.9"/>
</g>
<!-- 11&#45;&gt;10 -->
<g id="edge24" class="edge">
<title>11&#45;&gt;10</title>
<path fill="none" stroke="grey" stroke-width="2" d="M146.12,-359.34C146.03,-352.75 145.92,-345.08 145.81,-337.67"/>
<polygon fill="grey" stroke="grey" stroke-width="2" points="149.27,-337.85 145.63,-327.9 142.27,-337.95 149.27,-337.85"/>
</g>
<!-- 11&#45;&gt;16 -->
<g id="edge34" class="edge">
<title>11&#45;&gt;16</title>
<path fill="none" stroke="grey" stroke-width="2" d="M192.72,-368.42C263.21,-355.36 396.98,-330.59 471.27,-316.83"/>
<polygon fill="grey" stroke="grey" stroke-width="2" points="472.79,-319.74 481.99,-314.48 471.52,-312.86 472.79,-319.74"/>
</g>
<!-- 12&#45;&gt;11 -->
<g id="edge25" class="edge">
<title>12&#45;&gt;11</title>
<path fill="none" stroke="grey" stroke-width="2" d="M147.12,-431.34C147.03,-424.75 146.92,-417.08 146.81,-409.67"/>
<polygon fill="grey" stroke="grey" stroke-width="2" points="150.27,-409.85 146.63,-399.9 143.27,-409.95 150.27,-409.85"/>
</g>
<!-- 13 -->
<g id="node14" class="node">
<title>13</title>
<path fill="none" stroke="#56d88a" stroke-width="2" stroke-dasharray="5,2" d="M263.12,-252C263.12,-252 221.62,-252 221.62,-252 215.62,-252 209.62,-246 209.62,-240 209.62,-240 209.62,-228 209.62,-228 209.62,-222 215.62,-216 221.62,-216 221.62,-216 263.12,-216 263.12,-216 269.12,-216 275.12,-222 275.12,-228 275.12,-228 275.12,-240 275.12,-240 275.12,-246 269.12,-252 263.12,-252"/>
<text text-anchor="middle" x="242.37" y="-230.88" font-family="sans" font-size="10.00">centrifuge</text>
</g>
<!-- 13&#45;&gt;0 -->
<g id="edge3" class="edge">
<title>13&#45;&gt;0</title>
<path fill="none" stroke="grey" stroke-width="2" d="M222.88,-215.37C213.87,-205.88 204.13,-193.4 199.37,-180 182.94,-133.66 188.64,-106.8 223.37,-72 254.73,-40.59 305.24,-27.79 340.69,-22.58"/>
<polygon fill="grey" stroke="grey" stroke-width="2" points="341,-25.68 350.47,-20.93 340.1,-18.74 341,-25.68"/>
</g>
<!-- 14&#45;&gt;13 -->
<g id="edge30" class="edge">
<title>14&#45;&gt;13</title>
<path fill="none" stroke="grey" stroke-width="2" d="M327.31,-287.15C313.64,-278.76 297.13,-268.62 282.31,-259.52"/>
<polygon fill="grey" stroke="grey" stroke-width="2" points="283.73,-256.06 273.38,-253.81 280.07,-262.03 283.73,-256.06"/>
</g>
<!-- 18 -->
<g id="node19" class="node">
<title>18</title>
<path fill="none" stroke="#59d856" stroke-width="2" stroke-dasharray="5,2" d="M338.87,-252C338.87,-252 307.87,-252 307.87,-252 301.87,-252 295.87,-246 295.87,-240 295.87,-240 295.87,-228 295.87,-228 295.87,-222 301.87,-216 307.87,-216 307.87,-216 338.87,-216 338.87,-216 344.87,-216 350.87,-222 350.87,-228 350.87,-228 350.87,-240 350.87,-240 350.87,-246 344.87,-252 338.87,-252"/>
<text text-anchor="middle" x="323.37" y="-230.88" font-family="sans" font-size="10.00">kraken2</text>
</g>
<!-- 14&#45;&gt;18 -->
<g id="edge37" class="edge">
<title>14&#45;&gt;18</title>
<path fill="none" stroke="grey" stroke-width="2" d="M348.05,-287.34C344.79,-280.43 340.96,-272.31 337.31,-264.56"/>
<polygon fill="grey" stroke="grey" stroke-width="2" points="340.24,-262.45 332.81,-254.9 333.91,-265.44 340.24,-262.45"/>
</g>
<!-- 26 -->
<g id="node27" class="node">
<title>26</title>
<path fill="none" stroke="#56d8a2" stroke-width="2" stroke-dasharray="5,2" d="M426.37,-180C426.37,-180 396.37,-180 396.37,-180 390.37,-180 384.37,-174 384.37,-168 384.37,-168 384.37,-156 384.37,-156 384.37,-150 390.37,-144 396.37,-144 396.37,-144 426.37,-144 426.37,-144 432.37,-144 438.37,-150 438.37,-156 438.37,-156 438.37,-168 438.37,-168 438.37,-174 432.37,-180 426.37,-180"/>
<text text-anchor="middle" x="411.37" y="-158.88" font-family="sans" font-size="10.00">spades</text>
</g>
<!-- 14&#45;&gt;26 -->
<g id="edge45" class="edge">
<title>14&#45;&gt;26</title>
<path fill="none" stroke="grey" stroke-width="2" d="M363.34,-287.02C372.51,-263.33 388.77,-221.35 399.81,-192.86"/>
<polygon fill="grey" stroke="grey" stroke-width="2" points="403.12,-193.43 403.46,-182.84 396.59,-190.9 403.12,-193.43"/>
</g>
<!-- 15 -->
<g id="node16" class="node">
<title>15</title>
<path fill="none" stroke="#56d88a" stroke-width="2" stroke-dasharray="5,2" d="M493.12,-252C493.12,-252 451.62,-252 451.62,-252 445.62,-252 439.62,-246 439.62,-240 439.62,-240 439.62,-228 439.62,-228 439.62,-222 445.62,-216 451.62,-216 451.62,-216 493.12,-216 493.12,-216 499.12,-216 505.12,-222 505.12,-228 505.12,-228 505.12,-240 505.12,-240 505.12,-246 499.12,-252 493.12,-252"/>
<text text-anchor="middle" x="472.37" y="-230.88" font-family="sans" font-size="10.00">centrifuge</text>
</g>
<!-- 15&#45;&gt;0 -->
<g id="edge4" class="edge">
<title>15&#45;&gt;0</title>
<path fill="none" stroke="grey" stroke-width="2" d="M474.65,-215.14C477.73,-183.82 480.12,-117.98 453.37,-72 445.53,-58.51 432.74,-47.44 420.1,-38.97"/>
<polygon fill="grey" stroke="grey" stroke-width="2" points="421.5,-35.49 411.16,-33.2 417.82,-41.44 421.5,-35.49"/>
</g>
<!-- 16&#45;&gt;15 -->
<g id="edge33" class="edge">
<title>16&#45;&gt;15</title>
<path fill="none" stroke="grey" stroke-width="2" d="M511.25,-287.34C505.81,-280.01 499.37,-271.34 493.3,-263.18"/>
<polygon fill="grey" stroke="grey" stroke-width="2" points="495.44,-260.84 486.67,-254.9 489.82,-265.02 495.44,-260.84"/>
</g>
<!-- 20 -->
<g id="node21" class="node">
<title>20</title>
<path fill="none" stroke="#59d856" stroke-width="2" stroke-dasharray="5,2" d="M636.87,-252C636.87,-252 605.87,-252 605.87,-252 599.87,-252 593.87,-246 593.87,-240 593.87,-240 593.87,-228 593.87,-228 593.87,-222 599.87,-216 605.87,-216 605.87,-216 636.87,-216 636.87,-216 642.87,-216 648.87,-222 648.87,-228 648.87,-228 648.87,-240 648.87,-240 648.87,-246 642.87,-252 636.87,-252"/>
<text text-anchor="middle" x="621.37" y="-230.88" font-family="sans" font-size="10.00">kraken2</text>
</g>
<!-- 16&#45;&gt;20 -->
<g id="edge39" class="edge">
<title>16&#45;&gt;20</title>
<path fill="none" stroke="grey" stroke-width="2" d="M549.1,-287.15C560.39,-279.01 573.96,-269.22 586.28,-260.33"/>
<polygon fill="grey" stroke="grey" stroke-width="2" points="588.63,-262.5 594.69,-253.81 584.53,-256.83 588.63,-262.5"/>
</g>
<!-- 28 -->
<g id="node29" class="node">
<title>28</title>
<path fill="none" stroke="#56d8a2" stroke-width="2" stroke-dasharray="5,2" d="M548.37,-180C548.37,-180 518.37,-180 518.37,-180 512.37,-180 506.37,-174 506.37,-168 506.37,-168 506.37,-156 506.37,-156 506.37,-150 512.37,-144 518.37,-144 518.37,-144 548.37,-144 548.37,-144 554.37,-144 560.37,-150 560.37,-156 560.37,-156 560.37,-168 560.37,-168 560.37,-174 554.37,-180 548.37,-180"/>
<text text-anchor="middle" x="533.37" y="-158.88" font-family="sans" font-size="10.00">spades</text>
</g>
<!-- 16&#45;&gt;28 -->
<g id="edge47" class="edge">
<title>16&#45;&gt;28</title>
<path fill="none" stroke="grey" stroke-width="2" d="M525.51,-287.02C527,-263.54 529.63,-222.11 531.43,-193.64"/>
<polygon fill="grey" stroke="grey" stroke-width="2" points="535.1,-194.04 532.24,-183.84 528.12,-193.6 535.1,-194.04"/>
</g>
<!-- 17 -->
<g id="node18" class="node">
<title>17</title>
<path fill="none" stroke="#88d856" stroke-width="2" stroke-dasharray="5,2" d="M250.5,-180C250.5,-180 220.25,-180 220.25,-180 214.25,-180 208.25,-174 208.25,-168 208.25,-168 208.25,-156 208.25,-156 208.25,-150 214.25,-144 220.25,-144 220.25,-144 250.5,-144 250.5,-144 256.5,-144 262.5,-150 262.5,-156 262.5,-156 262.5,-168 262.5,-168 262.5,-174 256.5,-180 250.5,-180"/>
<text text-anchor="middle" x="235.37" y="-158.88" font-family="sans" font-size="10.00">bracken</text>
</g>
<!-- 17&#45;&gt;0 -->
<g id="edge5" class="edge">
<title>17&#45;&gt;0</title>
<path fill="none" stroke="grey" stroke-width="2" d="M230.33,-143.12C226,-123.72 222.55,-92.75 237.37,-72 260.89,-39.09 307.17,-26.57 340.93,-21.84"/>
<polygon fill="grey" stroke="grey" stroke-width="2" points="341.12,-24.98 350.64,-20.33 340.3,-18.03 341.12,-24.98"/>
</g>
<!-- 18&#45;&gt;17 -->
<g id="edge36" class="edge">
<title>18&#45;&gt;17</title>
<path fill="none" stroke="grey" stroke-width="2" d="M301.17,-215.34C291.13,-207.36 279.08,-197.77 268.05,-188.99"/>
<polygon fill="grey" stroke="grey" stroke-width="2" points="269.88,-185.39 259.88,-181.9 265.53,-190.87 269.88,-185.39"/>
</g>
<!-- 22 -->
<g id="node23" class="node">
<title>22</title>
<path fill="none" stroke="#70d856" stroke-width="2" stroke-dasharray="5,2" d="M353.87,-180C353.87,-180 292.87,-180 292.87,-180 286.87,-180 280.87,-174 280.87,-168 280.87,-168 280.87,-156 280.87,-156 280.87,-150 286.87,-144 292.87,-144 292.87,-144 353.87,-144 353.87,-144 359.87,-144 365.87,-150 365.87,-156 365.87,-156 365.87,-168 365.87,-168 365.87,-174 359.87,-180 353.87,-180"/>
<text text-anchor="middle" x="323.37" y="-158.88" font-family="sans" font-size="10.00">kreport2krona</text>
</g>
<!-- 18&#45;&gt;22 -->
<g id="edge41" class="edge">
<title>18&#45;&gt;22</title>
<path fill="none" stroke="grey" stroke-width="2" d="M323.37,-215.34C323.37,-208.75 323.37,-201.08 323.37,-193.67"/>
<polygon fill="grey" stroke="grey" stroke-width="2" points="326.87,-193.9 323.37,-183.9 319.87,-193.9 326.87,-193.9"/>
</g>
<!-- 19 -->
<g id="node20" class="node">
<title>19</title>
<path fill="none" stroke="#88d856" stroke-width="2" stroke-dasharray="5,2" d="M636.5,-180C636.5,-180 606.25,-180 606.25,-180 600.25,-180 594.25,-174 594.25,-168 594.25,-168 594.25,-156 594.25,-156 594.25,-150 600.25,-144 606.25,-144 606.25,-144 636.5,-144 636.5,-144 642.5,-144 648.5,-150 648.5,-156 648.5,-156 648.5,-168 648.5,-168 648.5,-174 642.5,-180 636.5,-180"/>
<text text-anchor="middle" x="621.37" y="-158.88" font-family="sans" font-size="10.00">bracken</text>
</g>
<!-- 19&#45;&gt;0 -->
<g id="edge6" class="edge">
<title>19&#45;&gt;0</title>
<path fill="none" stroke="grey" stroke-width="2" d="M631.42,-143.2C641,-123.59 651.75,-92.15 635.37,-72 608.98,-39.53 487.12,-26.27 422.26,-21.45"/>
<polygon fill="grey" stroke="grey" stroke-width="2" points="422.56,-17.75 412.34,-20.54 422.07,-24.73 422.56,-17.75"/>
</g>
<!-- 20&#45;&gt;19 -->
<g id="edge38" class="edge">
<title>20&#45;&gt;19</title>
<path fill="none" stroke="grey" stroke-width="2" d="M621.37,-215.34C621.37,-208.75 621.37,-201.08 621.37,-193.67"/>
<polygon fill="grey" stroke="grey" stroke-width="2" points="624.87,-193.9 621.37,-183.9 617.87,-193.9 624.87,-193.9"/>
</g>
<!-- 24 -->
<g id="node25" class="node">
<title>24</title>
<path fill="none" stroke="#70d856" stroke-width="2" stroke-dasharray="5,2" d="M739.87,-180C739.87,-180 678.87,-180 678.87,-180 672.87,-180 666.87,-174 666.87,-168 666.87,-168 666.87,-156 666.87,-156 666.87,-150 672.87,-144 678.87,-144 678.87,-144 739.87,-144 739.87,-144 745.87,-144 751.87,-150 751.87,-156 751.87,-156 751.87,-168 751.87,-168 751.87,-174 745.87,-180 739.87,-180"/>
<text text-anchor="middle" x="709.37" y="-158.88" font-family="sans" font-size="10.00">kreport2krona</text>
</g>
<!-- 20&#45;&gt;24 -->
<g id="edge43" class="edge">
<title>20&#45;&gt;24</title>
<path fill="none" stroke="grey" stroke-width="2" d="M643.58,-215.34C653.61,-207.36 665.67,-197.77 676.7,-188.99"/>
<polygon fill="grey" stroke="grey" stroke-width="2" points="679.22,-190.87 684.87,-181.9 674.86,-185.39 679.22,-190.87"/>
</g>
<!-- 21 -->
<g id="node22" class="node">
<title>21</title>
<path fill="none" stroke="#a7d856" stroke-width="2" stroke-dasharray="5,2" d="M288.37,-108C288.37,-108 258.37,-108 258.37,-108 252.37,-108 246.37,-102 246.37,-96 246.37,-96 246.37,-84 246.37,-84 246.37,-78 252.37,-72 258.37,-72 258.37,-72 288.37,-72 288.37,-72 294.37,-72 300.37,-78 300.37,-84 300.37,-84 300.37,-96 300.37,-96 300.37,-102 294.37,-108 288.37,-108"/>
<text text-anchor="middle" x="273.37" y="-86.88" font-family="sans" font-size="10.00">Krona</text>
</g>
<!-- 21&#45;&gt;0 -->
<g id="edge7" class="edge">
<title>21&#45;&gt;0</title>
<path fill="none" stroke="grey" stroke-width="2" d="M300.91,-71.15C313.73,-62.84 329.19,-52.82 343.13,-43.79"/>
<polygon fill="grey" stroke="grey" stroke-width="2" points="345.4,-46.19 351.89,-37.81 341.6,-40.31 345.4,-46.19"/>
</g>
<!-- 22&#45;&gt;21 -->
<g id="edge40" class="edge">
<title>22&#45;&gt;21</title>
<path fill="none" stroke="grey" stroke-width="2" d="M310.76,-143.34C305.58,-136.1 299.47,-127.53 293.7,-119.45"/>
<polygon fill="grey" stroke="grey" stroke-width="2" points="295.82,-117 287.16,-110.9 290.12,-121.07 295.82,-117"/>
</g>
<!-- 23 -->
<g id="node24" class="node">
<title>23</title>
<path fill="none" stroke="#a7d856" stroke-width="2" stroke-dasharray="5,2" d="M724.37,-108C724.37,-108 694.37,-108 694.37,-108 688.37,-108 682.37,-102 682.37,-96 682.37,-96 682.37,-84 682.37,-84 682.37,-78 688.37,-72 694.37,-72 694.37,-72 724.37,-72 724.37,-72 730.37,-72 736.37,-78 736.37,-84 736.37,-84 736.37,-96 736.37,-96 736.37,-102 730.37,-108 724.37,-108"/>
<text text-anchor="middle" x="709.37" y="-86.88" font-family="sans" font-size="10.00">Krona</text>
</g>
<!-- 23&#45;&gt;0 -->
<g id="edge8" class="edge">
<title>23&#45;&gt;0</title>
<path fill="none" stroke="grey" stroke-width="2" d="M681.42,-76.5C677.11,-74.84 672.66,-73.27 668.37,-72 582.42,-46.55 478.2,-30.97 422.01,-23.76"/>
<polygon fill="grey" stroke="grey" stroke-width="2" points="422.49,-19.92 412.13,-22.15 421.62,-26.87 422.49,-19.92"/>
</g>
<!-- 24&#45;&gt;23 -->
<g id="edge42" class="edge">
<title>24&#45;&gt;23</title>
<path fill="none" stroke="grey" stroke-width="2" d="M709.37,-143.34C709.37,-136.75 709.37,-129.08 709.37,-121.67"/>
<polygon fill="grey" stroke="grey" stroke-width="2" points="712.87,-121.9 709.37,-111.9 705.87,-121.9 712.87,-121.9"/>
</g>
<!-- 25 -->
<g id="node26" class="node">
<title>25</title>
<path fill="none" stroke="#d86e56" stroke-width="2" stroke-dasharray="5,2" d="M360.37,-108C360.37,-108 330.37,-108 330.37,-108 324.37,-108 318.37,-102 318.37,-96 318.37,-96 318.37,-84 318.37,-84 318.37,-78 324.37,-72 330.37,-72 330.37,-72 360.37,-72 360.37,-72 366.37,-72 372.37,-78 372.37,-84 372.37,-84 372.37,-96 372.37,-96 372.37,-102 366.37,-108 360.37,-108"/>
<text text-anchor="middle" x="345.37" y="-86.88" font-family="sans" font-size="10.00">VFDB</text>
</g>
<!-- 25&#45;&gt;0 -->
<g id="edge9" class="edge">
<title>25&#45;&gt;0</title>
<path fill="none" stroke="grey" stroke-width="2" d="M354.46,-71.34C358.05,-64.34 362.29,-56.12 366.31,-48.28"/>
<polygon fill="grey" stroke="grey" stroke-width="2" points="369.71,-49.4 371.17,-38.9 363.48,-46.19 369.71,-49.4"/>
</g>
<!-- 26&#45;&gt;25 -->
<g id="edge44" class="edge">
<title>26&#45;&gt;25</title>
<path fill="none" stroke="grey" stroke-width="2" d="M394.72,-143.34C387.58,-135.77 379.08,-126.75 371.16,-118.35"/>
<polygon fill="grey" stroke="grey" stroke-width="2" points="373.66,-115.78 364.25,-110.9 368.57,-120.58 373.66,-115.78"/>
</g>
<!-- 29 -->
<g id="node30" class="node">
<title>29</title>
<path fill="none" stroke="#d8a456" stroke-width="2" stroke-dasharray="5,2" d="M432.37,-108C432.37,-108 402.37,-108 402.37,-108 396.37,-108 390.37,-102 390.37,-96 390.37,-96 390.37,-84 390.37,-84 390.37,-78 396.37,-72 402.37,-72 402.37,-72 432.37,-72 432.37,-72 438.37,-72 444.37,-78 444.37,-84 444.37,-84 444.37,-96 444.37,-96 444.37,-102 438.37,-108 432.37,-108"/>
<text text-anchor="middle" x="417.37" y="-86.88" font-family="sans" font-size="10.00">rgi</text>
</g>
<!-- 26&#45;&gt;29 -->
<g id="edge48" class="edge">
<title>26&#45;&gt;29</title>
<path fill="none" stroke="grey" stroke-width="2" d="M412.89,-143.34C413.45,-136.75 414.11,-129.08 414.74,-121.67"/>
<polygon fill="grey" stroke="grey" stroke-width="2" points="418.47,-122.16 415.84,-111.9 411.5,-121.57 418.47,-122.16"/>
</g>
<!-- 27 -->
<g id="node28" class="node">
<title>27</title>
<path fill="none" stroke="#d86e56" stroke-width="2" stroke-dasharray="5,2" d="M542.37,-108C542.37,-108 512.37,-108 512.37,-108 506.37,-108 500.37,-102 500.37,-96 500.37,-96 500.37,-84 500.37,-84 500.37,-78 506.37,-72 512.37,-72 512.37,-72 542.37,-72 542.37,-72 548.37,-72 554.37,-78 554.37,-84 554.37,-84 554.37,-96 554.37,-96 554.37,-102 548.37,-108 542.37,-108"/>
<text text-anchor="middle" x="527.37" y="-86.88" font-family="sans" font-size="10.00">VFDB</text>
</g>
<!-- 27&#45;&gt;0 -->
<g id="edge10" class="edge">
<title>27&#45;&gt;0</title>
<path fill="none" stroke="grey" stroke-width="2" d="M499.57,-75.67C477.24,-64.96 445.62,-49.8 420.7,-37.85"/>
<polygon fill="grey" stroke="grey" stroke-width="2" points="421.6,-34.45 411.07,-33.28 418.58,-40.76 421.6,-34.45"/>
</g>
<!-- 28&#45;&gt;27 -->
<g id="edge46" class="edge">
<title>28&#45;&gt;27</title>
<path fill="none" stroke="grey" stroke-width="2" d="M531.86,-143.34C531.29,-136.75 530.64,-129.08 530,-121.67"/>
<polygon fill="grey" stroke="grey" stroke-width="2" points="533.25,-121.57 528.91,-111.9 526.27,-122.16 533.25,-121.57"/>
</g>
<!-- 30 -->
<g id="node31" class="node">
<title>30</title>
<path fill="none" stroke="#d8a456" stroke-width="2" stroke-dasharray="5,2" d="M614.37,-108C614.37,-108 584.37,-108 584.37,-108 578.37,-108 572.37,-102 572.37,-96 572.37,-96 572.37,-84 572.37,-84 572.37,-78 578.37,-72 584.37,-72 584.37,-72 614.37,-72 614.37,-72 620.37,-72 626.37,-78 626.37,-84 626.37,-84 626.37,-96 626.37,-96 626.37,-102 620.37,-108 614.37,-108"/>
<text text-anchor="middle" x="599.37" y="-86.88" font-family="sans" font-size="10.00">rgi</text>
</g>
<!-- 28&#45;&gt;30 -->
<g id="edge49" class="edge">
<title>28&#45;&gt;30</title>
<path fill="none" stroke="grey" stroke-width="2" d="M550.03,-143.34C557.16,-135.77 565.66,-126.75 573.58,-118.35"/>
<polygon fill="grey" stroke="grey" stroke-width="2" points="576.18,-120.58 580.49,-110.9 571.09,-115.78 576.18,-120.58"/>
</g>
<!-- 29&#45;&gt;0 -->
<g id="edge11" class="edge">
<title>29&#45;&gt;0</title>
<path fill="none" stroke="grey" stroke-width="2" d="M408.29,-71.34C404.69,-64.34 400.46,-56.12 396.43,-48.28"/>
<polygon fill="grey" stroke="grey" stroke-width="2" points="399.27,-46.19 391.58,-38.9 393.04,-49.4 399.27,-46.19"/>
</g>
<!-- 30&#45;&gt;0 -->
<g id="edge12" class="edge">
<title>30&#45;&gt;0</title>
<path fill="none" stroke="grey" stroke-width="2" d="M571.65,-75.38C568.88,-74.18 566.09,-73.03 563.37,-72 515.61,-53.9 458.87,-38.27 421.59,-28.76"/>
<polygon fill="grey" stroke="grey" stroke-width="2" points="421.81,-24.71 411.26,-25.66 420.1,-31.49 421.81,-24.71"/>
</g>
</g>
</svg>
