<?xml version="1.0" standalone="no"?><!DOCTYPE svg PUBLIC "-//W3C//DTD SVG 1.1//EN" 	"http://www.w3.org/Graphics/SVG/1.1/DTD/svg11.dtd"><svg width="1920" height="944" version="1.1"	xmlns="http://www.w3.org/2000/svg"><title>Krona (snapshot) - all</title><defs>	<style type="text/css">	text {font-size: 12px; font-family: sans-serif; dominant-baseline:central}	path {stroke-width:0.3;}	path.wedge {stroke:none}	path.line {fill:none;stroke:black;}	line {stroke:black;stroke-width:0.3;}	line.tick {stroke-width:0.6;}	line.pattern {stroke-width:0.19999999999999998;}	circle {fill:none;stroke:black;stroke-width:0.3;}	rect {stroke:black;stroke-width:0.3;}	.highlight {stroke:black;stroke-width:1.5;}	.searchHighlight {fill:rgb(255, 255, 100);stroke:none;}	</style><pattern id="hiddenPattern" patternUnits="userSpaceOnUse" x="0" y="0" width="7.199999999999999" height="7.199999999999999"><line class="pattern" x1="0" y1="0" x2="3.5999999999999996" y2="3.5999999999999996"/><line class="pattern" x1="3.5999999999999996" y1="7.199999999999999" x2="7.199999999999999" y2="3.5999999999999996"/></pattern></defs><path class="wedge" fill="rgb(207,112,112)" d=" M 885,568 L 885,877.92 A 405.91999999999996,405.91999999999996 0 1,1 1179.3604236591736,751.5048968858895 L 954.6161821819095,538.102853027802 A 96,96 0 1 0 885,568 Z "/><path class="wedge" fill="rgb(207,112,112)" d=" M 802.616662096525,607.1606142381758 L 673.7342422200581,818.6090391055417 A 405.91999999999996,405.91999999999996 0 1,1 1179.3604236591736,751.5048968858895 L 999.7862034177039,580.9932727754727 A 158.28899521242496,158.28899521242496 0 1 0 802.616662096525,607.1606142381758 Z "/><path class="wedge" fill="rgb(211,123,123)" d=" M 885,630.288995212425 L 885,877.92 A 405.91999999999996,405.91999999999996 0 0,1 790.055831960569,866.6601719901569 L 847.9764067790669,625.8982116542293 A 158.28899521242496,158.28899521242496 0 0 0 885,630.288995212425 Z "/><path class="wedge" fill="rgb(211,123,123)" d=" M 836.2364143371813,675.597164593667 L 790.4521038722047,866.75529348928 A 405.91999999999996,405.91999999999996 0 0,1 790.055831960569,866.6601719901569 L 836.032034968626,675.548105169176 A 209.35542199158778,209.35542199158778 0 0 0 836.2364143371813,675.597164593667 Z "/><path class="wedge" fill="rgb(214,134,134)" d=" M 885,681.3554219915877 L 885,877.92 A 405.91999999999996,405.91999999999996 0 0,1 820.6325500400332,872.7840787576911 L 851.8021416808946,678.7065430031192 A 209.35542199158778,209.35542199158778 0 0 0 885,681.3554219915877 Z "/><path class="wedge" fill="rgb(214,134,134)" d=" M 885,681.3554219915877 L 885,877.92 A 405.91999999999996,405.91999999999996 0 0,1 820.6325500400332,872.7840787576911 L 851.8021416808946,678.7065430031192 A 209.35542199158778,209.35542199158778 0 0 0 885,681.3554219915877 Z "/><path class="wedge" fill="rgb(214,134,134)" d=" M 845.0822880256472,720.7931623710414 L 820.6944542389165,872.7940159038919 A 405.91999999999996,405.91999999999996 0 0,1 820.6325500400332,872.7840787576911 L 845.0438609514069,720.7869938806693 A 251.97512054139537,251.97512054139537 0 0 0 845.0822880256472,720.7931623710414 Z "/><path class="wedge" fill="rgb(218,145,145)" d=" M 885,723.9751205413954 L 885,877.92 A 405.91999999999996,405.91999999999996 0 0,1 820.7563599719114,872.8039434885108 L 845.1207160521885,720.7993249260547 A 251.97512054139537,251.97512054139537 0 0 0 885,723.9751205413954 Z "/><path class="wedge" fill="rgb(218,145,145)" d=" M 840.109625651903,756.5608580686825 L 821.7470591337769,872.9614842747044 A 405.91999999999996,405.91999999999996 0 0,1 820.7563599719114,872.8039434885108 L 839.4065301810292,756.4490519649587 A 288.0798980385427,288.0798980385427 0 0 0 840.109625651903,756.5608580686825 Z "/><path class="wedge" fill="rgb(222,156,156)" d=" M 885,760.0798980385428 L 885,877.92 A 405.91999999999996,405.91999999999996 0 0,1 821.8709238151048,872.9810047122453 L 840.197531950601,756.5747116498227 A 288.0798980385427,288.0798980385427 0 0 0 885,760.0798980385428 Z "/><path class="wedge" fill="rgb(222,157,156)" d=" M 840.197531950601,756.5747116498227 L 821.8709238151048,872.9810047122453 A 405.91999999999996,405.91999999999996 0 0,1 821.7470591337769,872.9614842747044 L 840.109625651903,756.5608580686825 A 288.0798980385427,288.0798980385427 0 0 0 840.197531950601,756.5747116498227 Z "/><path class="wedge" fill="url(#hiddenPattern)" d=" M 840.197531950601,756.5747116498227 L 821.8709238151048,872.9810047122453 A 405.91999999999996,405.91999999999996 0 0,1 821.7470591337769,872.9614842747044 L 840.109625651903,756.5608580686825 A 288.0798980385427,288.0798980385427 0 0 0 840.197531950601,756.5747116498227 Z "/><path class="wedge" fill="rgb(214,135,134)" d=" M 845.1207160521885,720.7993249260547 L 820.7563599719114,872.8039434885108 A 405.91999999999996,405.91999999999996 0 0,1 820.6944542389165,872.7940159038919 L 845.0822880256472,720.7931623710414 A 251.97512054139537,251.97512054139537 0 0 0 845.1207160521885,720.7993249260547 Z "/><path class="wedge" fill="url(#hiddenPattern)" d=" M 845.1207160521885,720.7993249260547 L 820.7563599719114,872.8039434885108 A 405.91999999999996,405.91999999999996 0 0,1 820.6944542389165,872.7940159038919 L 845.0822880256472,720.7931623710414 A 251.97512054139537,251.97512054139537 0 0 0 845.1207160521885,720.7993249260547 Z "/><path class="wedge" fill="rgb(214,135,134)" d=" M 851.8021416808946,678.7065430031192 L 820.6325500400332,872.7840787576911 A 405.91999999999996,405.91999999999996 0 0,1 790.9094590863942,866.8645546394168 L 836.4722977473771,675.653516619175 A 209.35542199158778,209.35542199158778 0 0 0 851.8021416808946,678.7065430031192 Z "/><path class="wedge" fill="rgb(214,135,134)" d=" M 851.8021416808946,678.7065430031192 L 820.6325500400332,872.7840787576911 A 405.91999999999996,405.91999999999996 0 0,1 790.9094590863942,866.8645546394168 L 836.4722977473771,675.653516619175 A 209.35542199158778,209.35542199158778 0 0 0 851.8021416808946,678.7065430031192 Z "/><path class="wedge" fill="rgb(214,135,134)" d=" M 826.7636114845751,717.152981675792 L 791.183932860555,866.9298569955013 A 405.91999999999996,405.91999999999996 0 0,1 790.9094590863942,866.8645546394168 L 826.5932316995692,717.1124451931205 A 251.97512054139537,251.97512054139537 0 0 0 826.7636114845751,717.152981675792 Z "/><path class="wedge" fill="rgb(218,146,145)" d=" M 845.0438609514069,720.7869938806693 L 820.6325500400332,872.7840787576911 A 405.91999999999996,405.91999999999996 0 0,1 791.7330162427868,867.0598893089903 L 827.1044553735805,717.2336993242589 A 251.97512054139537,251.97512054139537 0 0 0 845.0438609514069,720.7869938806693 Z "/><path class="wedge" fill="rgb(218,146,145)" d=" M 819.2419026824997,752.4744200298476 L 792.34332022171,867.2034742919948 A 405.91999999999996,405.91999999999996 0 0,1 791.7330162427868,867.0598893089903 L 818.8087722429533,752.3725183071834 A 288.0798980385427,288.0798980385427 0 0 0 819.2419026824997,752.4744200298476 Z "/><path class="wedge" fill="rgb(222,157,156)" d=" M 839.3186627378097,756.4349540401728 L 820.6325500400332,872.7840787576911 A 405.91999999999996,405.91999999999996 0 0,1 792.4654075897685,867.2320781610119 L 819.3285476286519,752.4947200881595 A 288.0798980385427,288.0798980385427 0 0 0 839.3186627378097,756.4349540401728 Z "/><path class="wedge" fill="rgb(222,157,156)" d=" M 819.3285476286519,752.4947200881595 L 792.4654075897685,867.2320781610119 A 405.91999999999996,405.91999999999996 0 0,1 792.34332022171,867.2034742919948 L 819.2419026824997,752.4744200298476 A 288.0798980385427,288.0798980385427 0 0 0 819.3285476286519,752.4947200881595 Z "/><path class="wedge" fill="url(#hiddenPattern)" d=" M 819.3285476286519,752.4947200881595 L 792.4654075897685,867.2320781610119 A 405.91999999999996,405.91999999999996 0 0,1 792.34332022171,867.2034742919948 L 819.2419026824997,752.4744200298476 A 288.0798980385427,288.0798980385427 0 0 0 819.3285476286519,752.4947200881595 Z "/><path class="wedge" fill="rgb(214,136,134)" d=" M 827.1044553735805,717.2336993242589 L 791.7330162427868,867.0598893089903 A 405.91999999999996,405.91999999999996 0 0,1 791.183932860555,866.9298569955013 L 826.7636114845751,717.152981675792 A 251.97512054139537,251.97512054139537 0 0 0 827.1044553735805,717.2336993242589 Z "/><path class="wedge" fill="url(#hiddenPattern)" d=" M 827.1044553735805,717.2336993242589 L 791.7330162427868,867.0598893089903 A 405.91999999999996,405.91999999999996 0 0,1 791.183932860555,866.9298569955013 L 826.7636114845751,717.152981675792 A 251.97512054139537,251.97512054139537 0 0 0 827.1044553735805,717.2336993242589 Z "/><path class="wedge" fill="rgb(211,125,123)" d=" M 836.4722977473771,675.653516619175 L 790.9094590863942,866.8645546394168 A 405.91999999999996,405.91999999999996 0 0,1 790.4521038722047,866.75529348928 L 836.2364143371813,675.597164593667 A 209.35542199158778,209.35542199158778 0 0 0 836.4722977473771,675.653516619175 Z "/><path class="wedge" fill="url(#hiddenPattern)" d=" M 836.4722977473771,675.653516619175 L 790.9094590863942,866.8645546394168 A 405.91999999999996,405.91999999999996 0 0,1 790.4521038722047,866.75529348928 L 836.2364143371813,675.597164593667 A 209.35542199158778,209.35542199158778 0 0 0 836.4722977473771,675.653516619175 Z "/><path class="wedge" fill="rgb(211,125,123)" d=" M 847.9764067790669,625.8982116542293 L 790.055831960569,866.6601719901569 A 405.91999999999996,405.91999999999996 0 0,1 728.3280600388382,846.4662196097347 L 823.9055874200984,618.0235554863525 A 158.28899521242496,158.28899521242496 0 0 0 847.9764067790669,625.8982116542293 Z "/><path class="wedge" fill="rgb(211,125,123)" d=" M 804.3597017265213,665.2015398790604 L 728.6462281999758,846.5991783812478 A 405.91999999999996,405.91999999999996 0 0,1 728.3280600388382,846.4662196097347 L 804.1956047871262,665.1329656779429 A 209.35542199158778,209.35542199158778 0 0 0 804.3597017265213,665.2015398790604 Z "/><path class="wedge" fill="rgb(214,136,134)" d=" M 836.032034968626,675.548105169176 L 790.055831960569,866.6601719901569 A 405.91999999999996,405.91999999999996 0 0,1 754.7424029811367,856.4528642354891 L 817.8189441478756,670.2836313261121 A 209.35542199158778,209.35542199158778 0 0 0 836.032034968626,675.548105169176 Z "/><path class="wedge" fill="rgb(214,136,134)" d=" M 804.3268346430534,710.7117545558691 L 755.0393466968815,856.5533447950058 A 405.91999999999996,405.91999999999996 0 0,1 754.7424029811367,856.4528642354891 L 804.1425066262796,710.6493811791045 A 251.97512054139537,251.97512054139537 0 0 0 804.3268346430534,710.7117545558691 Z "/><path class="wedge" fill="rgb(218,147,145)" d=" M 826.0633420712502,716.9855745223384 L 790.055831960569,866.6601719901569 A 405.91999999999996,405.91999999999996 0 0,1 757.1498655313685,857.2601582260393 L 805.6369406681932,711.1505094816794 A 251.97512054139537,251.97512054139537 0 0 0 826.0633420712502,716.9855745223384 Z "/><path class="wedge" fill="rgb(218,147,145)" d=" M 795.1525659135332,745.7105519375809 L 758.4001549823546,857.6728220156408 A 405.91999999999996,405.91999999999996 0 0,1 757.1498655313685,857.2601582260393 L 794.2652401903397,745.4176859974139 A 288.0798980385427,288.0798980385427 0 0 0 795.1525659135332,745.7105519375809 Z "/><path class="wedge" fill="rgb(222,158,156)" d=" M 817.6184808628459,752.0888404286513 L 790.055831960569,866.6601719901569 A 405.91999999999996,405.91999999999996 0 0,1 765.689668876584,859.9898082259647 L 800.3259065210425,747.3549083408791 A 288.0798980385427,288.0798980385427 0 0 0 817.6184808628459,752.0888404286513 Z "/><path class="wedge" fill="rgb(222,158,156)" d=" M 792.3290235417838,777.300304694674 L 767.0987428523501,860.420313530335 A 405.91999999999996,405.91999999999996 0 0,1 765.689668876584,859.9898082259647 L 791.2214843653985,776.9619253771704 A 319.0551455851794,319.0551455851794 0 0 0 792.3290235417838,777.300304694674 Z "/><path class="wedge" fill="rgb(225,168,167)" d=" M 810.3734101392283,782.2048645816699 L 790.055831960569,866.6601719901569 A 405.91999999999996,405.91999999999996 0 0,1 767.1287400918638,860.4294176393809 L 792.3526015217311,777.3074605698146 A 319.0551455851794,319.0551455851794 0 0 0 810.3734101392283,782.2048645816699 Z "/><path class="wedge" fill="rgb(225,169,167)" d=" M 792.3526015217311,777.3074605698146 L 767.1287400918638,860.4294176393809 A 405.91999999999996,405.91999999999996 0 0,1 767.0987428523501,860.420313530335 L 792.3290235417838,777.300304694674 A 319.0551455851794,319.0551455851794 0 0 0 792.3526015217311,777.3074605698146 Z "/><path class="wedge" fill="url(#hiddenPattern)" d=" M 792.3526015217311,777.3074605698146 L 767.1287400918638,860.4294176393809 A 405.91999999999996,405.91999999999996 0 0,1 767.0987428523501,860.420313530335 L 792.3290235417838,777.300304694674 A 319.0551455851794,319.0551455851794 0 0 0 792.3526015217311,777.3074605698146 Z "/><path class="wedge" fill="rgb(218,147,145)" d=" M 800.3259065210425,747.3549083408791 L 765.689668876584,859.9898082259647 A 405.91999999999996,405.91999999999996 0 0,1 758.4001549823546,857.6728220156408 L 795.1525659135332,745.7105519375809 A 288.0798980385427,288.0798980385427 0 0 0 800.3259065210425,747.3549083408791 Z "/><path class="wedge" fill="url(#hiddenPattern)" d=" M 800.3259065210425,747.3549083408791 L 765.689668876584,859.9898082259647 A 405.91999999999996,405.91999999999996 0 0,1 758.4001549823546,857.6728220156408 L 795.1525659135332,745.7105519375809 A 288.0798980385427,288.0798980385427 0 0 0 800.3259065210425,747.3549083408791 Z "/><path class="wedge" fill="rgb(214,137,134)" d=" M 805.6369406681932,711.1505094816794 L 757.1498655313685,857.2601582260393 A 405.91999999999996,405.91999999999996 0 0,1 755.0393466968815,856.5533447950058 L 804.3268346430534,710.7117545558691 A 251.97512054139537,251.97512054139537 0 0 0 805.6369406681932,711.1505094816794 Z "/><path class="wedge" fill="url(#hiddenPattern)" d=" M 805.6369406681932,711.1505094816794 L 757.1498655313685,857.2601582260393 A 405.91999999999996,405.91999999999996 0 0,1 755.0393466968815,856.5533447950058 L 804.3268346430534,710.7117545558691 A 251.97512054139537,251.97512054139537 0 0 0 805.6369406681932,711.1505094816794 Z "/><path class="wedge" fill="rgb(214,137,134)" d=" M 817.8189441478756,670.2836313261121 L 754.7424029811367,856.4528642354891 A 405.91999999999996,405.91999999999996 0 0,1 730.180797699796,847.2360070663908 L 805.1511641950133,665.5299876966462 A 209.35542199158778,209.35542199158778 0 0 0 817.8189441478756,670.2836313261121 Z "/><path class="wedge" fill="rgb(214,137,134)" d=" M 789.2017611371073,705.0539825933445 L 730.6735687409384,847.438941793259 A 405.91999999999996,405.91999999999996 0 0,1 730.180797699796,847.2360070663908 L 788.8958731727519,704.9280107213877 A 251.97512054139537,251.97512054139537 0 0 0 789.2017611371073,705.0539825933445 Z "/><path class="wedge" fill="rgb(218,147,145)" d=" M 804.1425066262796,710.6493811791045 L 754.7424029811367,856.4528642354891 A 405.91999999999996,405.91999999999996 0 0,1 730.7605559734184,847.4746866386215 L 789.2557585217883,705.0761712308073 A 251.97512054139537,251.97512054139537 0 0 0 804.1425066262796,710.6493811791045 Z "/><path class="wedge" fill="rgb(218,147,145)" d=" M 804.1425066262796,710.6493811791045 L 754.7424029811367,856.4528642354891 A 405.91999999999996,405.91999999999996 0 0,1 730.7605559734184,847.4746866386215 L 789.2557585217883,705.0761712308073 A 251.97512054139537,251.97512054139537 0 0 0 804.1425066262796,710.6493811791045 Z "/><path class="wedge" fill="rgb(218,147,145)" d=" M 775.5985867890844,738.4983272768361 L 730.8475514850626,847.510411329499 A 405.91999999999996,405.91999999999996 0 0,1 730.7605559734184,847.4746866386215 L 775.5368464015098,738.4729735980189 A 288.0798980385427,288.0798980385427 0 0 0 775.5985867890844,738.4983272768361 Z "/><path class="wedge" fill="rgb(222,158,156)" d=" M 792.5566730687334,744.8447524871535 L 754.7424029811367,856.4528642354891 A 405.91999999999996,405.91999999999996 0 0,1 730.8765518279511,847.5223150806856 L 775.6191682234123,738.5067753243038 A 288.0798980385427,288.0798980385427 0 0 0 792.5566730687334,744.8447524871535 Z "/><path class="wedge" fill="rgb(222,158,156)" d=" M 775.6191682234123,738.5067753243038 L 730.8765518279511,847.5223150806856 A 405.91999999999996,405.91999999999996 0 0,1 730.8475514850626,847.510411329499 L 775.5985867890844,738.4983272768361 A 288.0798980385427,288.0798980385427 0 0 0 775.6191682234123,738.5067753243038 Z "/><path class="wedge" fill="url(#hiddenPattern)" d=" M 775.6191682234123,738.5067753243038 L 730.8765518279511,847.5223150806856 A 405.91999999999996,405.91999999999996 0 0,1 730.8475514850626,847.510411329499 L 775.5985867890844,738.4983272768361 A 288.0798980385427,288.0798980385427 0 0 0 775.6191682234123,738.5067753243038 Z "/><path class="wedge" fill="rgb(214,137,134)" d=" M 789.2557585217883,705.0761712308073 L 730.7605559734184,847.4746866386215 A 405.91999999999996,405.91999999999996 0 0,1 730.6735687409384,847.438941793259 L 789.2017611371073,705.0539825933445 A 251.97512054139537,251.97512054139537 0 0 0 789.2557585217883,705.0761712308073 Z "/><path class="wedge" fill="url(#hiddenPattern)" d=" M 789.2557585217883,705.0761712308073 L 730.7605559734184,847.4746866386215 A 405.91999999999996,405.91999999999996 0 0,1 730.6735687409384,847.438941793259 L 789.2017611371073,705.0539825933445 A 251.97512054139537,251.97512054139537 0 0 0 789.2557585217883,705.0761712308073 Z "/><path class="wedge" fill="rgb(211,126,123)" d=" M 805.1511641950133,665.5299876966462 L 730.180797699796,847.2360070663908 A 405.91999999999996,405.91999999999996 0 0,1 728.6462281999758,846.5991783812478 L 804.3597017265213,665.2015398790604 A 209.35542199158778,209.35542199158778 0 0 0 805.1511641950133,665.5299876966462 Z "/><path class="wedge" fill="url(#hiddenPattern)" d=" M 805.1511641950133,665.5299876966462 L 730.180797699796,847.2360070663908 A 405.91999999999996,405.91999999999996 0 0,1 728.6462281999758,846.5991783812478 L 804.3597017265213,665.2015398790604 A 209.35542199158778,209.35542199158778 0 0 0 805.1511641950133,665.5299876966462 Z "/><path class="wedge" fill="rgb(211,127,123)" d=" M 823.9055874200984,618.0235554863525 L 728.3280600388382,846.4662196097347 A 405.91999999999996,405.91999999999996 0 0,1 693.9042573636942,830.1249272897361 L 810.4819839099503,611.6512487712235 A 158.28899521242496,158.28899521242496 0 0 0 823.9055874200984,618.0235554863525 Z "/><path class="wedge" fill="rgb(211,127,123)" d=" M 786.6268299581454,656.8037124442909 L 694.2638977126938,830.3165997888548 A 405.91999999999996,405.91999999999996 0 0,1 693.9042573636942,830.1249272897361 L 786.4413435149299,656.7048563225497 A 209.35542199158778,209.35542199158778 0 0 0 786.6268299581454,656.8037124442909 Z "/><path class="wedge" fill="rgb(214,137,134)" d=" M 804.1956047871262,665.1329656779429 L 728.3280600388382,846.4662196097347 A 405.91999999999996,405.91999999999996 0 0,1 703.4846595751668,835.0746859675801 L 791.3824874542086,659.257720967693 A 209.35542199158778,209.35542199158778 0 0 0 804.1956047871262,665.1329656779429 Z "/><path class="wedge" fill="rgb(214,137,134)" d=" M 773.038417670156,697.734502134805 L 704.6351869911538,835.6476050083156 A 405.91999999999996,405.91999999999996 0 0,1 703.4846595751668,835.0746859675801 L 772.324226981524,697.3788622443099 A 251.97512054139537,251.97512054139537 0 0 0 773.038417670156,697.734502134805 Z "/><path class="wedge" fill="rgb(218,148,145)" d=" M 787.7457849892393,704.4501646256492 L 728.3280600388382,846.4662196097347 A 405.91999999999996,405.91999999999996 0 0,1 705.4219528799612,836.0367720334762 L 773.5268031393866,697.9760778346365 A 251.97512054139537,251.97512054139537 0 0 0 787.7457849892393,704.4501646256492 Z "/><path class="wedge" fill="rgb(218,148,145)" d=" M 758.8326309713618,730.9822824949395 L 707.2234220964185,836.9199018262663 A 405.91999999999996,405.91999999999996 0 0,1 705.4219528799612,836.0367720334762 L 757.554135040645,730.3555286009165 A 288.0798980385427,288.0798980385427 0 0 0 758.8326309713618,730.9822824949395 Z "/><path class="wedge" fill="rgb(222,159,156)" d=" M 773.8105131811387,737.7572683387143 L 728.3280600388382,846.4662196097347 A 405.91999999999996,405.91999999999996 0 0,1 707.7872739362392,837.1940526912376 L 759.2327945024133,731.1768463332035 A 288.0798980385427,288.0798980385427 0 0 0 773.8105131811387,737.7572683387143 Z "/><path class="wedge" fill="rgb(222,159,156)" d=" M 747.44152074372,759.8781872755899 L 709.9903232330038,838.2549104625241 A 405.91999999999996,405.91999999999996 0 0,1 707.7872739362392,837.1940526912376 L 745.7099130030062,759.0443477735625 A 319.0551455851794,319.0551455851794 0 0 0 747.44152074372,759.8781872755899 Z "/><path class="wedge" fill="rgb(225,169,167)" d=" M 761.8550733804174,766.3323172406278 L 728.3280600388382,846.4662196097347 A 405.91999999999996,405.91999999999996 0 0,1 712.6537107218186,839.5157179931783 L 749.5349566005232,760.8691882862516 A 319.0551455851794,319.0551455851794 0 0 0 761.8550733804174,766.3323172406278 Z "/><path class="wedge" fill="rgb(225,169,167)" d=" M 749.5349566005232,760.8691882862516 L 712.6537107218186,839.5157179931783 A 405.91999999999996,405.91999999999996 0 0,1 709.9903232330038,838.2549104625241 L 747.44152074372,759.8781872755899 A 319.0551455851794,319.0551455851794 0 0 0 749.5349566005232,760.8691882862516 Z "/><path class="wedge" fill="url(#hiddenPattern)" d=" M 749.5349566005232,760.8691882862516 L 712.6537107218186,839.5157179931783 A 405.91999999999996,405.91999999999996 0 0,1 709.9903232330038,838.2549104625241 L 747.44152074372,759.8781872755899 A 319.0551455851794,319.0551455851794 0 0 0 749.5349566005232,760.8691882862516 Z "/><path class="wedge" fill="rgb(218,148,145)" d=" M 759.2327945024133,731.1768463332035 L 707.7872739362392,837.1940526912376 A 405.91999999999996,405.91999999999996 0 0,1 707.2234220964185,836.9199018262663 L 758.8326309713618,730.9822824949395 A 288.0798980385427,288.0798980385427 0 0 0 759.2327945024133,731.1768463332035 Z "/><path class="wedge" fill="url(#hiddenPattern)" d=" M 759.2327945024133,731.1768463332035 L 707.7872739362392,837.1940526912376 A 405.91999999999996,405.91999999999996 0 0,1 707.2234220964185,836.9199018262663 L 758.8326309713618,730.9822824949395 A 288.0798980385427,288.0798980385427 0 0 0 759.2327945024133,731.1768463332035 Z "/><path class="wedge" fill="rgb(214,138,134)" d=" M 773.5268031393866,697.9760778346365 L 705.4219528799612,836.0367720334762 A 405.91999999999996,405.91999999999996 0 0,1 704.6351869911538,835.6476050083156 L 773.038417670156,697.734502134805 A 251.97512054139537,251.97512054139537 0 0 0 773.5268031393866,697.9760778346365 Z "/><path class="wedge" fill="url(#hiddenPattern)" d=" M 773.5268031393866,697.9760778346365 L 705.4219528799612,836.0367720334762 A 405.91999999999996,405.91999999999996 0 0,1 704.6351869911538,835.6476050083156 L 773.038417670156,697.734502134805 A 251.97512054139537,251.97512054139537 0 0 0 773.5268031393866,697.9760778346365 Z "/><path class="wedge" fill="rgb(211,127,123)" d=" M 791.3824874542086,659.257720967693 L 703.4846595751668,835.0746859675801 A 405.91999999999996,405.91999999999996 0 0,1 694.2638977126938,830.3165997888548 L 786.6268299581454,656.8037124442909 A 209.35542199158778,209.35542199158778 0 0 0 791.3824874542086,659.257720967693 Z "/><path class="wedge" fill="url(#hiddenPattern)" d=" M 791.3824874542086,659.257720967693 L 703.4846595751668,835.0746859675801 A 405.91999999999996,405.91999999999996 0 0,1 694.2638977126938,830.3165997888548 L 786.6268299581454,656.8037124442909 A 209.35542199158778,209.35542199158778 0 0 0 791.3824874542086,659.257720967693 Z "/><path class="wedge" fill="rgb(207,117,112)" d=" M 810.4819839099503,611.6512487712235 L 693.9042573636942,830.1249272897361 A 405.91999999999996,405.91999999999996 0 0,1 673.7342422200581,818.6090391055417 L 802.616662096525,607.1606142381758 A 158.28899521242496,158.28899521242496 0 0 0 810.4819839099503,611.6512487712235 Z "/><path class="wedge" fill="url(#hiddenPattern)" d=" M 810.4819839099503,611.6512487712235 L 693.9042573636942,830.1249272897361 A 405.91999999999996,405.91999999999996 0 0,1 673.7342422200581,818.6090391055417 L 802.616662096525,607.1606142381758 A 158.28899521242496,158.28899521242496 0 0 0 810.4819839099503,611.6512487712235 Z "/><path class="wedge" fill="rgb(188,207,112)" d=" M 954.6161821819095,538.102853027802 L 1179.3604236591736,751.5048968858895 A 405.91999999999996,405.91999999999996 0 0,1 907.0896709491694,877.3185078889901 L 890.2242028259762,567.8577472342902 A 96,96 0 0 0 954.6161821819095,538.102853027802 Z "/><path class="wedge" fill="rgb(193,211,123)" d=" M 999.7862034177039,580.9932727754727 L 1179.3604236591736,751.5048968858895 A 405.91999999999996,405.91999999999996 0 0,1 911.6269666460648,877.0457394507803 L 895.3832178654916,629.9480762532954 A 158.28899521242496,158.28899521242496 0 0 0 999.7862034177039,580.9932727754727 Z "/><path class="wedge" fill="rgb(193,211,123)" d=" M 999.7862034177039,580.9932727754727 L 1179.3604236591736,751.5048968858895 A 405.91999999999996,405.91999999999996 0 0,1 911.6269666460648,877.0457394507803 L 895.3832178654916,629.9480762532954 A 158.28899521242496,158.28899521242496 0 0 0 999.7862034177039,580.9932727754727 Z "/><path class="wedge" fill="rgb(193,211,123)" d=" M 999.7862034177039,580.9932727754727 L 1179.3604236591736,751.5048968858895 A 405.91999999999996,405.91999999999996 0 0,1 911.6269666460648,877.0457394507803 L 895.3832178654916,629.9480762532954 A 158.28899521242496,158.28899521242496 0 0 0 999.7862034177039,580.9932727754727 Z "/><path class="wedge" fill="rgb(193,211,123)" d=" M 999.7862034177039,580.9932727754727 L 1179.3604236591736,751.5048968858895 A 405.91999999999996,405.91999999999996 0 0,1 911.6269666460648,877.0457394507803 L 895.3832178654916,629.9480762532954 A 158.28899521242496,158.28899521242496 0 0 0 999.7862034177039,580.9932727754727 Z "/><path class="wedge" fill="rgb(193,211,123)" d=" M 999.7862034177039,580.9932727754727 L 1179.3604236591736,751.5048968858895 A 405.91999999999996,405.91999999999996 0 0,1 911.6269666460648,877.0457394507803 L 895.3832178654916,629.9480762532954 A 158.28899521242496,158.28899521242496 0 0 0 999.7862034177039,580.9932727754727 Z "/><path class="wedge" fill="rgb(141,207,112)" d=" M 895.3832178654916,629.9480762532954 L 911.6269666460648,877.0457394507803 A 405.91999999999996,405.91999999999996 0 0,1 907.0896709491694,877.3185078889901 L 893.6138939178093,630.0544426358583 A 158.28899521242496,158.28899521242496 0 0 0 895.3832178654916,629.9480762532954 Z "/><path class="wedge" fill="url(#hiddenPattern)" d=" M 895.3832178654916,629.9480762532954 L 911.6269666460648,877.0457394507803 A 405.91999999999996,405.91999999999996 0 0,1 907.0896709491694,877.3185078889901 L 893.6138939178093,630.0544426358583 A 158.28899521242496,158.28899521242496 0 0 0 895.3832178654916,629.9480762532954 Z "/><path class="wedge" fill="rgb(112,207,150)" d=" M 890.2242028259762,567.8577472342902 L 907.0896709491694,877.3185078889901 A 405.91999999999996,405.91999999999996 0 0,1 885.9404497221634,877.9189105650537 L 885.2224161739448,567.9997423488498 A 96,96 0 0 0 890.2242028259762,567.8577472342902 Z "/><rect fill="rgb(112,207,150)" x="1881.84" y="841.84" width="24" height="24"/><path class="line" d="M 896.5189728438517,877.7565275687165 L 897.6909613599412,919.0398951992545 A 447.21999999999997,447.21999999999997 0 0,0 1117.8174022705346,853.84 L 1348.74,853.84 L 1765.793125,853.84"/><text x="1873.84" y="853.84" style="font-color:black;font-weight:normal" text-anchor="end">Unclassified&#160;&#160;&#160;0.8%</text><path class="wedge" fill="rgb(112,150,207)" d=" M 885.2224161739448,567.9997423488498 L 885.9404497221634,877.9189105650537 A 405.91999999999996,405.91999999999996 0 0,1 885.062696703985,877.9199951580647 L 885.014827758136,567.9999988548833 A 96,96 0 0 0 885.2224161739448,567.9997423488498 Z "/><path class="wedge" fill="rgb(112,150,207)" d=" M 885.2224161739448,567.9997423488498 L 885.9404497221634,877.9189105650537 A 405.91999999999996,405.91999999999996 0 0,1 885.062696703985,877.9199951580647 L 885.014827758136,567.9999988548833 A 96,96 0 0 0 885.2224161739448,567.9997423488498 Z "/><path class="wedge" fill="rgb(112,150,207)" d=" M 885.2224161739448,567.9997423488498 L 885.9404497221634,877.9189105650537 A 405.91999999999996,405.91999999999996 0 0,1 885.062696703985,877.9199951580647 L 885.014827758136,567.9999988548833 A 96,96 0 0 0 885.2224161739448,567.9997423488498 Z "/><path class="wedge" fill="rgb(112,150,207)" d=" M 885.2224161739448,567.9997423488498 L 885.9404497221634,877.9189105650537 A 405.91999999999996,405.91999999999996 0 0,1 885.062696703985,877.9199951580647 L 885.014827758136,567.9999988548833 A 96,96 0 0 0 885.2224161739448,567.9997423488498 Z "/><path class="wedge" fill="rgb(112,150,207)" d=" M 885.2224161739448,567.9997423488498 L 885.9404497221634,877.9189105650537 A 405.91999999999996,405.91999999999996 0 0,1 885.062696703985,877.9199951580647 L 885.014827758136,567.9999988548833 A 96,96 0 0 0 885.2224161739448,567.9997423488498 Z "/><path class="wedge" fill="rgb(112,150,207)" d=" M 885.2224161739448,567.9997423488498 L 885.9404497221634,877.9189105650537 A 405.91999999999996,405.91999999999996 0 0,1 885.062696703985,877.9199951580647 L 885.014827758136,567.9999988548833 A 96,96 0 0 0 885.2224161739448,567.9997423488498 Z "/><rect fill="rgb(112,150,207)" x="1881.84" y="873.84" width="24" height="24"/><path class="line" d="M 885.5015735062369,877.9196901161827 L 885.5628121319984,927.4796522815307 A 455.47999999999996,455.47999999999996 0 0,0 1075.2589940055395,885.84 L 1336.74,885.84 L 1771.78140625,885.84"/><text x="1873.84" y="885.84" style="font-color:black;font-weight:normal" text-anchor="end">g__Homo&#160;&#160;&#160;0.03%</text><path class="wedge" fill="rgb(183,101,204)" d=" M 885.014827758136,567.9999988548833 L 885.062696703985,877.9199951580647 A 405.91999999999996,405.91999999999996 0 0,1 885.0000000000001,877.92 L 885,568 A 96,96 0 0 0 885.014827758136,567.9999988548833 Z "/><path class="wedge" fill="url(#hiddenPattern)" d=" M 885.014827758136,567.9999988548833 L 885.062696703985,877.9199951580647 A 405.91999999999996,405.91999999999996 0 0,1 885.0000000000001,877.92 L 885,568 A 96,96 0 0 0 885.014827758136,567.9999988548833 Z "/><rect fill="rgb(183,101,204)" x="1881.84" y="905.84" width="24" height="24"/><rect fill="url(#hiddenPattern)" style="stroke:none" x="1881.84" y="905.84" width="24" height="24"/><path class="line" d="M 885.0313483520861,877.9199987895162 L 885.0358136696798,935.7399986170926 A 463.74,463.74 0 0,0 1012.5989106536572,917.84 L 1324.74,917.84 L 1753.095859375,917.84"/><text x="1873.84" y="917.84" style="font-color:black;font-weight:normal" text-anchor="end">k__Archaea&#160;&#160;&#160;0.002%</text><circle cx="885" cy="472" r="96"/><circle cx="885" cy="472" r="405.91999999999996"/><text x="885" y="472" text-anchor="middle" style="font-color:black;font-weight:bold" transform="rotate(360,885,472)">all</text><path class="line" d=" M 954.6161821819095,538.102853027802 A 96,96 0 1 0 885,568"/><line x1="1179.3604236591736" y1="751.5048968858895" x2="954.6161821819095" y2="538.102853027802"/><text x="634.04" y="472" text-anchor="end" style="font-color:black;font-weight:normal" transform="rotate(66.75856389581972,885,472)">k__Bacteria&#160;&#160;&#160;87%</text><path class="line" d=" M 847.9764067790669,625.8982116542293 A 158.28899521242496,158.28899521242496 0 0 0 885,630.288995212425"/><line x1="790.055831960569" y1="866.6601719901569" x2="847.9764067790669" y2="625.8982116542293"/><text x="885" y="645.6089232461738" text-anchor="middle" style="font-color:black;font-weight:normal" transform="rotate(6.763357465062261,885,472)">p__...ota</text><line x1="820.6325500400332" y1="872.7840787576911" x2="851.8021416808946" y2="678.7065430031192"/><path class="line" d=" M 851.8021416808946,678.7065430031192 A 209.35542199158778,209.35542199158778 0 0 0 885,681.3554219915877"/><text x="885" y="694.1413315565301" text-anchor="middle" style="font-color:black;font-weight:normal" transform="rotate(4.5620029744711665,885,472)">o_...es</text><path class="line" d=" M 845.1207160521885,720.7993249260547 A 251.97512054139537,251.97512054139537 0 0 0 885,723.9751205413954"/><line x1="820.7563599719114" y1="872.8039434885108" x2="845.1207160521885" y2="720.7993249260547"/><text x="885" y="734.8065537905395" text-anchor="middle" style="font-color:black;font-weight:normal" transform="rotate(4.553153308177335,885,472)">f__...eae</text><path class="line" d=" M 840.197531950601,756.5747116498227 A 288.0798980385427,288.0798980385427 0 0 0 885,760.0798980385428"/><line x1="821.8709238151048" y1="872.9810047122453" x2="840.197531950601" y2="756.5747116498227"/><text x="538.0000509807287" y="472" text-anchor="end" style="font-color:black;font-weight:normal" transform="rotate(-85.52649368846717,885,472)">g__Capnocytophaga&#160;&#160;&#160;2%</text><path class="line" d=" M 840.109625651903,756.5608580686825 A 288.0798980385427,288.0798980385427 0 0 0 840.197531950601,756.5747116498227"/><line x1="821.7470591337769" y1="872.9614842747044" x2="840.109625651903" y2="756.5608580686825"/><path class="line" d=" M 845.0822880256472,720.7931623710414 A 251.97512054139537,251.97512054139537 0 0 0 845.1207160521885,720.7993249260547"/><line x1="820.6944542389165" y1="872.7940159038919" x2="845.0822880256472" y2="720.7931623710414"/><line x1="790.9094590863942" y1="866.8645546394168" x2="836.4722977473771" y2="675.653516619175"/><path class="line" d=" M 836.4722977473771,675.653516619175 A 209.35542199158778,209.35542199158778 0 0 0 851.8021416808946,678.7065430031192"/><text x="885" y="711.1892109764531" text-anchor="middle" style="font-color:black;font-weight:normal" transform="rotate(11.263412775476601,885,472)">o_...es</text><path class="line" d=" M 827.1044553735805,717.2336993242589 A 251.97512054139537,251.97512054139537 0 0 0 845.0438609514069,720.7869938806693"/><line x1="791.7330162427868" y1="867.0598893089903" x2="827.1044553735805" y2="717.2336993242589"/><text x="885" y="749.2484647893984" text-anchor="middle" style="font-color:black;font-weight:normal" transform="rotate(11.203677527993221,885,472)">f_...ae</text><path class="line" d=" M 819.3285476286519,752.4947200881595 A 288.0798980385427,288.0798980385427 0 0 0 839.3186627378097,756.4349540401728"/><line x1="792.4654075897685" y1="867.2320781610119" x2="819.3285476286519" y2="752.4947200881595"/><text x="538.0000509807287" y="472" text-anchor="end" style="font-color:black;font-weight:normal" transform="rotate(-78.84942046976978,885,472)">g__Prevotella&#160;&#160;&#160;1%</text><path class="line" d=" M 819.2419026824997,752.4744200298476 A 288.0798980385427,288.0798980385427 0 0 0 819.3285476286519,752.4947200881595"/><line x1="792.34332022171" y1="867.2034742919948" x2="819.2419026824997" y2="752.4744200298476"/><path class="line" d=" M 826.7636114845751,717.152981675792 A 251.97512054139537,251.97512054139537 0 0 0 827.1044553735805,717.2336993242589"/><line x1="791.183932860555" y1="866.9298569955013" x2="826.7636114845751" y2="717.152981675792"/><path class="line" d=" M 836.2364143371813,675.597164593667 A 209.35542199158778,209.35542199158778 0 0 0 836.4722977473771,675.653516619175"/><line x1="790.4521038722047" y1="866.75529348928" x2="836.2364143371813" y2="675.597164593667"/><path class="line" d=" M 823.9055874200984,618.0235554863525 A 158.28899521242496,158.28899521242496 0 0 0 847.9764067790669,625.8982116542293"/><line x1="728.3280600388382" y1="846.4662196097347" x2="823.9055874200984" y2="618.0235554863525"/><text x="885" y="666.035493957839" text-anchor="middle" style="font-color:black;font-weight:normal" transform="rotate(18.11526690347718,885,472)">p__Bacillota</text><path class="line" d=" M 817.8189441478756,670.2836313261121 A 209.35542199158778,209.35542199158778 0 0 0 836.032034968626,675.548105169176"/><line x1="754.7424029811367" y1="856.4528642354891" x2="817.8189441478756" y2="670.2836313261121"/><text x="885" y="694.1413315565301" text-anchor="middle" style="font-color:black;font-weight:normal" transform="rotate(16.121879570791187,885,472)">c...i</text><path class="line" d=" M 805.6369406681932,711.1505094816794 A 251.97512054139537,251.97512054139537 0 0 0 826.0633420712502,716.9855745223384"/><line x1="757.1498655313685" y1="857.2601582260393" x2="805.6369406681932" y2="711.1505094816794"/><text x="885" y="734.8065537905395" text-anchor="middle" style="font-color:black;font-weight:normal" transform="rotate(15.942673828341052,885,472)">o_...es</text><path class="line" d=" M 800.3259065210425,747.3549083408791 A 288.0798980385427,288.0798980385427 0 0 0 817.6184808628459,752.0888404286513"/><line x1="765.689668876584" y1="859.9898082259647" x2="800.3259065210425" y2="747.3549083408791"/><text x="885" y="769.3724723025337" text-anchor="middle" style="font-color:black;font-weight:normal" transform="rotate(15.309922688331966,885,472)">f__Stre...ccaceae</text><path class="line" d=" M 792.3526015217311,777.3074605698146 A 319.0551455851794,319.0551455851794 0 0 0 810.3734101392283,782.2048645816699"/><line x1="767.1287400918638" y1="860.4294176393809" x2="792.3526015217311" y2="777.3074605698146"/><text x="522.5124272074104" y="472" text-anchor="end" style="font-color:black;font-weight:normal" transform="rotate(-74.79627330719404,885,472)">g__Streptococcus&#160;&#160;&#160;0.9%</text><path class="line" d=" M 792.3290235417838,777.300304694674 A 319.0551455851794,319.0551455851794 0 0 0 792.3526015217311,777.3074605698146"/><line x1="767.0987428523501" y1="860.420313530335" x2="792.3290235417838" y2="777.300304694674"/><path class="line" d=" M 795.1525659135332,745.7105519375809 A 288.0798980385427,288.0798980385427 0 0 0 800.3259065210425,747.3549083408791"/><line x1="758.4001549823546" y1="857.6728220156408" x2="795.1525659135332" y2="745.7105519375809"/><path class="line" d=" M 804.3268346430534,710.7117545558691 A 251.97512054139537,251.97512054139537 0 0 0 805.6369406681932,711.1505094816794"/><line x1="755.0393466968815" y1="856.5533447950058" x2="804.3268346430534" y2="710.7117545558691"/><path class="line" d=" M 805.1511641950133,665.5299876966462 A 209.35542199158778,209.35542199158778 0 0 0 817.8189441478756,670.2836313261121"/><line x1="730.180797699796" y1="847.2360070663908" x2="805.1511641950133" y2="665.5299876966462"/><text x="885" y="711.1892109764531" text-anchor="middle" style="font-color:black;font-weight:normal" transform="rotate(20.56883688344252,885,472)">c_...es</text><line x1="730.7605559734184" y1="847.4746866386215" x2="789.2557585217883" y2="705.0761712308073"/><path class="line" d=" M 789.2557585217883,705.0761712308073 A 251.97512054139537,251.97512054139537 0 0 0 804.1425066262796,710.6493811791045"/><text x="885" y="749.2484647893984" text-anchor="middle" style="font-color:black;font-weight:normal" transform="rotate(20.524588551973352,885,472)">f_...ae</text><path class="line" d=" M 775.6191682234123,738.5067753243038 A 288.0798980385427,288.0798980385427 0 0 0 792.5566730687334,744.8447524871535"/><line x1="730.8765518279511" y1="847.5223150806856" x2="775.6191682234123" y2="738.5067753243038"/><text x="538.0000509807287" y="472" text-anchor="end" style="font-color:black;font-weight:normal" transform="rotate(-69.48426111432049,885,472)">g__Veillonella&#160;&#160;&#160;1%</text><path class="line" d=" M 775.5985867890844,738.4983272768361 A 288.0798980385427,288.0798980385427 0 0 0 775.6191682234123,738.5067753243038"/><line x1="730.8475514850626" y1="847.510411329499" x2="775.5985867890844" y2="738.4983272768361"/><path class="line" d=" M 789.2017611371073,705.0539825933445 A 251.97512054139537,251.97512054139537 0 0 0 789.2557585217883,705.0761712308073"/><line x1="730.6735687409384" y1="847.438941793259" x2="789.2017611371073" y2="705.0539825933445"/><path class="line" d=" M 804.3597017265213,665.2015398790604 A 209.35542199158778,209.35542199158778 0 0 0 805.1511641950133,665.5299876966462"/><line x1="728.6462281999758" y1="846.5991783812478" x2="804.3597017265213" y2="665.2015398790604"/><path class="line" d=" M 810.4819839099503,611.6512487712235 A 158.28899521242496,158.28899521242496 0 0 0 823.9055874200984,618.0235554863525"/><line x1="693.9042573636942" y1="830.1249272897361" x2="810.4819839099503" y2="611.6512487712235"/><text x="885" y="645.6089232461738" text-anchor="middle" style="font-color:black;font-weight:normal" transform="rotate(25.39411743015523,885,472)">p__...ota</text><path class="line" d=" M 791.3824874542086,659.257720967693 A 209.35542199158778,209.35542199158778 0 0 0 804.1956047871262,665.1329656779429"/><line x1="703.4846595751668" y1="835.0746859675801" x2="791.3824874542086" y2="659.257720967693"/><text x="885" y="694.1413315565301" text-anchor="middle" style="font-color:black;font-weight:normal" transform="rotate(24.633046128885542,885,472)">c...a</text><path class="line" d=" M 773.5268031393866,697.9760778346365 A 251.97512054139537,251.97512054139537 0 0 0 787.7457849892393,704.4501646256492"/><line x1="705.4219528799612" y1="836.0367720334762" x2="773.5268031393866" y2="697.9760778346365"/><text x="885" y="734.8065537905395" text-anchor="middle" style="font-color:black;font-weight:normal" transform="rotate(24.480389385316936,885,472)">o_...es</text><path class="line" d=" M 759.2327945024133,731.1768463332035 A 288.0798980385427,288.0798980385427 0 0 0 773.8105131811387,737.7572683387143"/><line x1="707.7872739362392" y1="837.1940526912376" x2="759.2327945024133" y2="731.1768463332035"/><text x="885" y="781.7625713211884" text-anchor="middle" style="font-color:black;font-weight:normal" transform="rotate(24.29454639314643,885,472)">f__Burkholderiaceae</text><path class="line" d=" M 749.5349566005232,760.8691882862516 A 319.0551455851794,319.0551455851794 0 0 0 761.8550733804174,766.3323172406278"/><line x1="712.6537107218186" y1="839.5157179931783" x2="749.5349566005232" y2="760.8691882862516"/><text x="522.5124272074104" y="472" text-anchor="end" style="font-color:black;font-weight:normal" transform="rotate(-66.08598925748842,885,472)">g__Lautropia&#160;&#160;&#160;0.7%</text><path class="line" d=" M 747.44152074372,759.8781872755899 A 319.0551455851794,319.0551455851794 0 0 0 749.5349566005232,760.8691882862516"/><line x1="709.9903232330038" y1="838.2549104625241" x2="747.44152074372" y2="759.8781872755899"/><path class="line" d=" M 758.8326309713618,730.9822824949395 A 288.0798980385427,288.0798980385427 0 0 0 759.2327945024133,731.1768463332035"/><line x1="707.2234220964185" y1="836.9199018262663" x2="758.8326309713618" y2="730.9822824949395"/><path class="line" d=" M 773.038417670156,697.734502134805 A 251.97512054139537,251.97512054139537 0 0 0 773.5268031393866,697.9760778346365"/><line x1="704.6351869911538" y1="835.6476050083156" x2="773.038417670156" y2="697.734502134805"/><path class="line" d=" M 786.6268299581454,656.8037124442909 A 209.35542199158778,209.35542199158778 0 0 0 791.3824874542086,659.257720967693"/><line x1="694.2638977126938" y1="830.3165997888548" x2="786.6268299581454" y2="656.8037124442909"/><line x1="1281.92" y1="472" x2="1299.92" y2="472" class="tick" transform="rotate(119.72381666441328,885,472)"/><text x="467.08000000000004" y="472" text-anchor="end" style="font-color:black;font-weight:normal" transform="rotate(-60.27618333558672,885,472)">9 more</text><path class="line" d=" M 802.616662096525,607.1606142381758 A 158.28899521242496,158.28899521242496 0 0 0 810.4819839099503,611.6512487712235"/><line x1="673.7342422200581" y1="818.6090391055417" x2="802.616662096525" y2="607.1606142381758"/><path class="line" d=" M 890.2242028259762,567.8577472342902 A 96,96 0 0 0 954.6161821819095,538.102853027802"/><line x1="907.0896709491694" y1="877.3185078889901" x2="890.2242028259762" y2="567.8577472342902"/><text x="885" y="586.6866985637275" text-anchor="middle" style="font-color:black;font-weight:normal" transform="rotate(335.19881021153157,885,472)">k__Viruses</text><line x1="911.6269666460648" y1="877.0457394507803" x2="895.3832178654916" y2="629.9480762532954"/><path class="line" d=" M 895.3832178654916,629.9480762532954 A 158.28899521242496,158.28899521242496 0 0 0 999.7862034177039,580.9932727754727"/><text x="1167.1044976062126" y="472" text-anchor="start" style="font-color:black;font-weight:normal" transform="rotate(424.8780098083801,885,472)">12%&#160;&#160;&#160;g__Betacoronavirus</text><path class="line" d=" M 893.6138939178093,630.0544426358583 A 158.28899521242496,158.28899521242496 0 0 0 895.3832178654916,629.9480762532954"/><path class="line" d=" M 885.2224161739448,567.9997423488498 A 96,96 0 0 0 890.2242028259762,567.8577472342902"/><line x1="885.9404497221634" y1="877.9189105650537" x2="885.2224161739448" y2="567.9997423488498"/><line x1="885.062696703985" y1="877.9199951580647" x2="885.014827758136" y2="567.9999988548833"/><path class="line" d=" M 885.014827758136,567.9999988548833 A 96,96 0 0 0 885.2224161739448,567.9997423488498"/><path class="line" d=" M 885,568 A 96,96 0 0 0 885.014827758136,567.9999988548833"/><line x1="885.0000000000001" y1="877.92" x2="885" y2="568"/></svg>